<mxfile host="app.diagrams.net" modified="2020-09-15T17:18:25.501Z" agent="5.0 (X11)" etag="FNkXIa5wh5qfLdcmlSc7" version="13.6.10" type="github">
  <diagram name="Page-1" id="42789a77-a242-8287-6e28-9cd8cfd52e62">
    <mxGraphModel dx="1350" dy="889" grid="1" gridSize="10" guides="1" tooltips="1" connect="1" arrows="1" fold="1" page="1" pageScale="1" pageWidth="1100" pageHeight="850" background="#ffffff" math="0" shadow="0">
      <root>
        <mxCell id="0" />
        <mxCell id="1" parent="0" />
        <mxCell id="1ea317790d2ca983-2" value="&lt;span&gt;Schools&lt;/span&gt;" style="ellipse;whiteSpace=wrap;html=1;rounded=0;shadow=1;comic=0;labelBackgroundColor=none;strokeWidth=1;fontFamily=Verdana;fontSize=12;align=center;" parent="1" vertex="1">
          <mxGeometry x="610" y="20" width="75" height="50" as="geometry" />
        </mxCell>
        <mxCell id="1ea317790d2ca983-3" value="&lt;span&gt;Users&lt;/span&gt;" style="ellipse;whiteSpace=wrap;html=1;rounded=0;shadow=1;comic=0;labelBackgroundColor=none;strokeWidth=1;fontFamily=Verdana;fontSize=12;align=center;" parent="1" vertex="1">
          <mxGeometry x="610" y="150" width="75" height="50" as="geometry" />
        </mxCell>
        <mxCell id="DX51bIksWlAL_mZGX_L8-2" style="edgeStyle=orthogonalEdgeStyle;rounded=0;orthogonalLoop=1;jettySize=auto;html=1;entryX=0;entryY=0.5;entryDx=0;entryDy=0;" parent="1" source="1ea317790d2ca983-9" target="1ea317790d2ca983-2" edge="1">
          <mxGeometry relative="1" as="geometry" />
        </mxCell>
        <mxCell id="DX51bIksWlAL_mZGX_L8-3" style="edgeStyle=orthogonalEdgeStyle;rounded=0;orthogonalLoop=1;jettySize=auto;html=1;" parent="1" source="1ea317790d2ca983-9" target="1ea317790d2ca983-3" edge="1">
          <mxGeometry relative="1" as="geometry" />
        </mxCell>
        <mxCell id="DX51bIksWlAL_mZGX_L8-4" style="edgeStyle=orthogonalEdgeStyle;rounded=0;orthogonalLoop=1;jettySize=auto;html=1;entryX=0;entryY=0.5;entryDx=0;entryDy=0;" parent="1" source="1ea317790d2ca983-9" target="DX51bIksWlAL_mZGX_L8-1" edge="1">
          <mxGeometry relative="1" as="geometry" />
        </mxCell>
        <mxCell id="1ea317790d2ca983-9" value="FrontEnd" style="ellipse;whiteSpace=wrap;html=1;rounded=0;shadow=1;comic=0;labelBackgroundColor=none;strokeWidth=1;fontFamily=Verdana;fontSize=12;align=center;" parent="1" vertex="1">
          <mxGeometry x="380" y="150" width="75" height="50" as="geometry" />
        </mxCell>
        <mxCell id="DX51bIksWlAL_mZGX_L8-1" value="&lt;span&gt;Catalog&lt;/span&gt;" style="ellipse;whiteSpace=wrap;html=1;rounded=0;shadow=1;comic=0;labelBackgroundColor=none;strokeWidth=1;fontFamily=Verdana;fontSize=12;align=center;" parent="1" vertex="1">
          <mxGeometry x="610" y="300" width="75" height="50" as="geometry" />
        </mxCell>
        <mxCell id="CANzfVYsNZtGC0yrYKIw-1" value="" style="fillColor=#F6F6F6;strokeColor=none;shadow=0;gradientColor=none;fontSize=14;align=left;spacing=10;fontColor=#717171;9E9E9E;verticalAlign=top;spacingTop=-4;fontStyle=0;spacingLeft=40;html=1;" parent="1" vertex="1">
          <mxGeometry x="170" y="420" width="670" height="420" as="geometry" />
        </mxCell>
        <mxCell id="CANzfVYsNZtGC0yrYKIw-2" value="Node 1" style="rounded=1;absoluteArcSize=1;arcSize=2;html=1;strokeColor=#4284F3;gradientColor=none;shadow=0;dashed=1;fontSize=12;fontColor=#9E9E9E;align=left;verticalAlign=top;spacing=10;spacingTop=-4;fillColor=none;dashPattern=1 2;strokeWidth=2;" parent="1" vertex="1">
          <mxGeometry x="470" y="480" width="330" height="120" as="geometry" />
        </mxCell>
        <mxCell id="CANzfVYsNZtGC0yrYKIw-3" value="Control Plane" style="rounded=1;absoluteArcSize=1;arcSize=2;html=1;strokeColor=#4284F3;gradientColor=none;shadow=0;dashed=1;fontSize=12;fontColor=#9E9E9E;align=left;verticalAlign=top;spacing=10;spacingTop=-4;fillColor=none;dashPattern=1 2;strokeWidth=2;" parent="1" vertex="1">
          <mxGeometry x="190" y="500" width="190" height="320" as="geometry" />
        </mxCell>
        <mxCell id="CANzfVYsNZtGC0yrYKIw-4" value="K8S Basics" style="fillColor=#4DA1F5;strokeColor=none;shadow=1;gradientColor=none;fontSize=14;align=left;spacingLeft=50;fontColor=#ffffff;html=1;" parent="1" vertex="1">
          <mxGeometry x="140" y="360" width="720" height="40" as="geometry" />
        </mxCell>
        <mxCell id="IBRghBGNFgl2v-8Pbvpy-1" value="Design of Solution" style="text;html=1;strokeColor=none;fillColor=none;align=center;verticalAlign=middle;whiteSpace=wrap;rounded=0;fontStyle=1" parent="1" vertex="1">
          <mxGeometry x="160" y="150" width="120" height="50" as="geometry" />
        </mxCell>
        <mxCell id="IBRghBGNFgl2v-8Pbvpy-2" value="Node 2" style="rounded=1;absoluteArcSize=1;arcSize=2;html=1;strokeColor=#4284F3;gradientColor=none;shadow=0;dashed=1;fontSize=12;fontColor=#9E9E9E;align=left;verticalAlign=top;spacing=10;spacingTop=-4;fillColor=none;dashPattern=1 2;strokeWidth=2;" parent="1" vertex="1">
          <mxGeometry x="460" y="680" width="240" height="130" as="geometry" />
        </mxCell>
        <mxCell id="aEQ6PGv0OPpfQ1XGGzQO-7" style="edgeStyle=orthogonalEdgeStyle;rounded=0;orthogonalLoop=1;jettySize=auto;html=1;" edge="1" parent="1" source="aEQ6PGv0OPpfQ1XGGzQO-1" target="aEQ6PGv0OPpfQ1XGGzQO-2">
          <mxGeometry relative="1" as="geometry" />
        </mxCell>
        <mxCell id="aEQ6PGv0OPpfQ1XGGzQO-1" value="Command line" style="rounded=0;whiteSpace=wrap;html=1;" vertex="1" parent="1">
          <mxGeometry x="10" y="545" width="120" height="30" as="geometry" />
        </mxCell>
        <mxCell id="aEQ6PGv0OPpfQ1XGGzQO-2" value="Kube API Server" style="rounded=1;whiteSpace=wrap;html=1;" vertex="1" parent="1">
          <mxGeometry x="225" y="540" width="120" height="40" as="geometry" />
        </mxCell>
        <mxCell id="aEQ6PGv0OPpfQ1XGGzQO-3" value="&lt;span&gt;Schools&lt;/span&gt;" style="ellipse;whiteSpace=wrap;html=1;rounded=0;shadow=1;comic=0;labelBackgroundColor=none;strokeWidth=1;fontFamily=Verdana;fontSize=12;align=center;" vertex="1" parent="1">
          <mxGeometry x="610" y="500" width="75" height="50" as="geometry" />
        </mxCell>
        <mxCell id="aEQ6PGv0OPpfQ1XGGzQO-5" value="&lt;span&gt;Catalog&lt;/span&gt;" style="ellipse;whiteSpace=wrap;html=1;rounded=0;shadow=1;comic=0;labelBackgroundColor=none;strokeWidth=1;fontFamily=Verdana;fontSize=12;align=center;" vertex="1" parent="1">
          <mxGeometry x="597.5" y="715" width="75" height="50" as="geometry" />
        </mxCell>
        <mxCell id="aEQ6PGv0OPpfQ1XGGzQO-6" value="Kube Scheduler" style="rounded=1;whiteSpace=wrap;html=1;" vertex="1" parent="1">
          <mxGeometry x="225" y="600" width="120" height="40" as="geometry" />
        </mxCell>
        <mxCell id="aEQ6PGv0OPpfQ1XGGzQO-8" value="ETCD" style="rounded=1;whiteSpace=wrap;html=1;" vertex="1" parent="1">
          <mxGeometry x="225" y="660" width="120" height="40" as="geometry" />
        </mxCell>
        <mxCell id="aEQ6PGv0OPpfQ1XGGzQO-9" value="Kube Controller Manager" style="rounded=1;whiteSpace=wrap;html=1;" vertex="1" parent="1">
          <mxGeometry x="225" y="720" width="120" height="40" as="geometry" />
        </mxCell>
        <mxCell id="aEQ6PGv0OPpfQ1XGGzQO-10" value="Cloud Controller Manager" style="rounded=1;whiteSpace=wrap;html=1;" vertex="1" parent="1">
          <mxGeometry x="225" y="770" width="120" height="40" as="geometry" />
        </mxCell>
        <mxCell id="aEQ6PGv0OPpfQ1XGGzQO-11" value="Logs" style="ellipse;whiteSpace=wrap;html=1;rounded=0;shadow=1;comic=0;labelBackgroundColor=none;strokeWidth=1;fontFamily=Verdana;fontSize=12;align=center;" vertex="1" parent="1">
          <mxGeometry x="710" y="515" width="75" height="50" as="geometry" />
        </mxCell>
        <mxCell id="aEQ6PGv0OPpfQ1XGGzQO-4" value="&lt;span&gt;Users&lt;/span&gt;" style="ellipse;whiteSpace=wrap;html=1;rounded=0;shadow=1;comic=0;labelBackgroundColor=none;strokeWidth=1;fontFamily=Verdana;fontSize=12;align=center;" vertex="1" parent="1">
          <mxGeometry x="700" y="485" width="75" height="50" as="geometry" />
        </mxCell>
        <mxCell id="aEQ6PGv0OPpfQ1XGGzQO-12" value="Kubelet" style="rounded=1;whiteSpace=wrap;html=1;" vertex="1" parent="1">
          <mxGeometry x="490" y="505" width="100" height="40" as="geometry" />
        </mxCell>
        <mxCell id="aEQ6PGv0OPpfQ1XGGzQO-13" value="Kube Proxy" style="rounded=1;whiteSpace=wrap;html=1;" vertex="1" parent="1">
          <mxGeometry x="490" y="550" width="100" height="40" as="geometry" />
        </mxCell>
        <mxCell id="aEQ6PGv0OPpfQ1XGGzQO-14" value="Kubelet" style="rounded=1;whiteSpace=wrap;html=1;" vertex="1" parent="1">
          <mxGeometry x="470" y="710" width="100" height="40" as="geometry" />
        </mxCell>
        <mxCell id="aEQ6PGv0OPpfQ1XGGzQO-15" value="Kube Proxy" style="rounded=1;whiteSpace=wrap;html=1;" vertex="1" parent="1">
          <mxGeometry x="470" y="755" width="100" height="40" as="geometry" />
        </mxCell>
      </root>
    </mxGraphModel>
  </diagram>
</mxfile>
